<?xml version="1.0" encoding="UTF-8" standalone="no"?>
<!DOCTYPE svg PUBLIC "-//W3C//DTD SVG 1.1//EN"
 "http://www.w3.org/Graphics/SVG/1.1/DTD/svg11.dtd">
<!-- Generated by graphviz version 2.38.0 (20140413.2041)
 -->
<!-- Title: %3 Pages: 1 -->
<svg width="974pt" height="332pt"
 viewBox="0.00 0.00 973.53 332.00" xmlns="http://www.w3.org/2000/svg" xmlns:xlink="http://www.w3.org/1999/xlink">
<g id="graph0" class="graph" transform="scale(1 1) rotate(0) translate(4 328)">
<title>%3</title>
<polygon fill="white" stroke="none" points="-4,4 -4,-328 969.535,-328 969.535,4 -4,4"/>
<!-- Cgo -->
<g id="node1" class="node"><title>Cgo</title>
<ellipse fill="lightyellow" stroke="black" cx="226.292" cy="-234" rx="27" ry="18"/>
<text text-anchor="start" x="214.792" y="-231.3" font-family="Times,serif" font-size="14.00">C</text>
<text text-anchor="start" x="224.792" y="-231.3" font-family="Times,serif" baseline-shift="sub" font-size="14.00">go</text>
</g>
<!-- SCgo_t -->
<g id="node2" class="node"><title>SCgo_t</title>
<ellipse fill="lightyellow" stroke="black" cx="212.292" cy="-162" rx="69.5877" ry="18"/>
<text text-anchor="start" x="166.792" y="-159.3" font-family="Times,serif" font-size="14.00">S</text>
<text text-anchor="start" x="174.792" y="-159.3" font-family="Times,serif" baseline-shift="sub" font-size="14.00">go</text>
<text text-anchor="start" x="187.792" y="-159.3" font-family="Times,serif" font-size="14.00"> &#160;/ C</text>
<text text-anchor="start" x="212.792" y="-159.3" font-family="Times,serif" baseline-shift="sub" font-size="14.00">go</text>
<text text-anchor="start" x="225.792" y="-159.3" font-family="Times,serif" font-size="14.00"> &#160;tests</text>
</g>
<!-- Cgo&#45;&gt;SCgo_t -->
<g id="edge1" class="edge"><title>Cgo&#45;&gt;SCgo_t</title>
<path fill="none" stroke="black" d="M217.244,-216.765C214.779,-208.869 212.572,-199.164 211.13,-190.183"/>
<polygon fill="black" stroke="black" points="214.582,-189.588 209.82,-180.124 207.641,-190.492 214.582,-189.588"/>
</g>
<!-- SCgo_t&#45;&gt;Cgo -->
<g id="edge5" class="edge"><title>SCgo_t&#45;&gt;Cgo</title>
<path fill="none" stroke="black" d="M221.66,-180.275C224.012,-188.03 226.105,-197.362 227.483,-206.005"/>
<polygon fill="black" stroke="black" points="224.029,-206.586 228.781,-216.055 230.972,-205.689 224.029,-206.586"/>
</g>
<!-- Sgo -->
<g id="node3" class="node"><title>Sgo</title>
<ellipse fill="lightyellow" stroke="black" cx="297.292" cy="-90" rx="27" ry="18"/>
<text text-anchor="start" x="286.792" y="-87.3" font-family="Times,serif" font-size="14.00">S</text>
<text text-anchor="start" x="294.792" y="-87.3" font-family="Times,serif" baseline-shift="sub" font-size="14.00">go</text>
</g>
<!-- SCgo_t&#45;&gt;Sgo -->
<g id="edge4" class="edge"><title>SCgo_t&#45;&gt;Sgo</title>
<path fill="none" stroke="black" d="M226.99,-144.055C238.834,-133.367 255.542,-119.585 269.782,-108.747"/>
<polygon fill="black" stroke="black" points="271.899,-111.533 277.826,-102.751 267.716,-105.921 271.899,-111.533"/>
</g>
<!-- Mgo -->
<g id="node4" class="node"><title>Mgo</title>
<ellipse fill="lightyellow" stroke="black" cx="212.292" cy="-90" rx="27.0966" ry="18"/>
<text text-anchor="start" x="199.292" y="-87.3" font-family="Times,serif" font-size="14.00">M</text>
<text text-anchor="start" x="212.292" y="-87.3" font-family="Times,serif" baseline-shift="sub" font-size="14.00">go</text>
</g>
<!-- SCgo_t&#45;&gt;Mgo -->
<g id="edge3" class="edge"><title>SCgo_t&#45;&gt;Mgo</title>
<path fill="none" stroke="black" d="M212.292,-143.697C212.292,-135.983 212.292,-126.712 212.292,-118.112"/>
<polygon fill="black" stroke="black" points="215.792,-118.104 212.292,-108.104 208.792,-118.104 215.792,-118.104"/>
</g>
<!-- Sgo&#45;&gt;SCgo_t -->
<g id="edge2" class="edge"><title>Sgo&#45;&gt;SCgo_t</title>
<path fill="none" stroke="black" d="M284.622,-106.101C274.218,-115.632 259.287,-128.111 245.629,-138.763"/>
<polygon fill="black" stroke="black" points="243.148,-136.254 237.34,-145.116 247.406,-141.81 243.148,-136.254"/>
</g>
<!-- Mmap_go -->
<g id="node5" class="node"><title>Mmap_go</title>
<ellipse fill="none" stroke="black" cx="92.2918" cy="-18" rx="92.0841" ry="18"/>
<text text-anchor="middle" x="92.2918" y="-14.3" font-family="Times,serif" font-size="14.00">io.ReaderAt via mmap</text>
</g>
<!-- Sgo&#45;&gt;Mmap_go -->
<g id="edge6" class="edge"><title>Sgo&#45;&gt;Mmap_go</title>
<path fill="none" stroke="black" d="M273.874,-80.841C265.775,-78.0284 256.638,-74.8655 248.292,-72 214.238,-60.3079 175.956,-47.2999 145.837,-37.0969"/>
<polygon fill="black" stroke="black" points="146.955,-33.7803 136.361,-33.888 144.71,-40.4105 146.955,-33.7803"/>
</g>
<!-- io_cancel -->
<g id="node6" class="node"><title>io_cancel</title>
<ellipse fill="none" stroke="black" cx="297.292" cy="-18" rx="94.4839" ry="18"/>
<text text-anchor="middle" x="297.292" y="-14.3" font-family="Times,serif" font-size="14.00">? conn IO vs ctx cancel</text>
</g>
<!-- Sgo&#45;&gt;io_cancel -->
<g id="edge7" class="edge"><title>Sgo&#45;&gt;io_cancel</title>
<path fill="none" stroke="black" d="M297.292,-71.6966C297.292,-63.9827 297.292,-54.7125 297.292,-46.1124"/>
<polygon fill="black" stroke="black" points="300.792,-46.1043 297.292,-36.1043 293.792,-46.1044 300.792,-46.1043"/>
</g>
<!-- load_serial_next -->
<g id="node7" class="node"><title>load_serial_next</title>
<ellipse fill="none" stroke="black" cx="534.292" cy="-18" rx="124.578" ry="18"/>
<text text-anchor="start" x="446.292" y="-15.3" font-family="Times,serif" font-size="14.00">? GetObject return += serial</text>
<text text-anchor="start" x="601.292" y="-15.3" font-family="Times,serif" baseline-shift="sub" font-size="14.00">next</text>
</g>
<!-- Sgo&#45;&gt;load_serial_next -->
<g id="edge8" class="edge"><title>Sgo&#45;&gt;load_serial_next</title>
<path fill="none" stroke="black" d="M321.762,-81.7724C357.021,-71.3585 423.276,-51.7895 472.476,-37.2577"/>
<polygon fill="black" stroke="black" points="473.476,-40.612 482.075,-34.4227 471.493,-33.8987 473.476,-40.612"/>
</g>
<!-- Cpy_r_Sgo -->
<g id="node8" class="node"><title>Cpy_r_Sgo</title>
<ellipse fill="none" stroke="black" cx="582.292" cy="-306" rx="61.99" ry="18"/>
<text text-anchor="start" x="542.792" y="-303.3" font-family="Times,serif" font-size="14.00">C</text>
<text text-anchor="start" x="552.792" y="-303.3" font-family="Times,serif" baseline-shift="sub" font-size="14.00">py</text>
<text text-anchor="start" x="565.792" y="-303.3" font-family="Times,serif" font-size="14.00"> &#160;read S</text>
<text text-anchor="start" x="608.792" y="-303.3" font-family="Times,serif" baseline-shift="sub" font-size="14.00">go</text>
</g>
<!-- Cpy_r_Sgo&#45;&gt;Sgo -->
<g id="edge9" class="edge"><title>Cpy_r_Sgo&#45;&gt;Sgo</title>
<path fill="none" stroke="black" d="M577.671,-288.003C571.637,-268.53 559.403,-236.656 539.292,-216 479.295,-154.379 382.401,-117.223 331.32,-100.872"/>
<polygon fill="black" stroke="black" points="332.327,-97.5202 321.739,-97.8782 330.24,-104.202 332.327,-97.5202"/>
</g>
<!-- Protog_fix -->
<g id="node9" class="node"><title>Protog_fix</title>
<ellipse fill="none" stroke="black" cx="434.292" cy="-234" rx="96.3833" ry="18"/>
<text text-anchor="middle" x="434.292" y="-230.3" font-family="Times,serif" font-size="14.00">proto(go/py) compat fix</text>
</g>
<!-- Cpy_r_Sgo&#45;&gt;Protog_fix -->
<g id="edge10" class="edge"><title>Cpy_r_Sgo&#45;&gt;Protog_fix</title>
<path fill="none" stroke="black" d="M551.266,-290.326C529.715,-280.133 500.723,-266.42 476.994,-255.197"/>
<polygon fill="black" stroke="black" points="478.389,-251.985 467.852,-250.873 475.396,-258.313 478.389,-251.985"/>
</g>
<!-- Cpy_patch -->
<g id="node10" class="node"><title>Cpy_patch</title>
<ellipse fill="lightyellow" stroke="black" cx="685.292" cy="-234" rx="99.3824" ry="18"/>
<text text-anchor="start" x="616.792" y="-230.3" font-family="Times,serif" font-size="14.00">py patch: ConnID py=go</text>
</g>
<!-- Cpy_r_Sgo&#45;&gt;Cpy_patch -->
<g id="edge11" class="edge"><title>Cpy_r_Sgo&#45;&gt;Cpy_patch</title>
<path fill="none" stroke="black" d="M605.407,-289.291C619.191,-279.923 636.919,-267.875 652.172,-257.509"/>
<polygon fill="black" stroke="black" points="654.515,-260.148 660.818,-251.633 650.58,-254.359 654.515,-260.148"/>
</g>
<!-- Mpy_vs_Sgo -->
<g id="node11" class="node"><title>Mpy_vs_Sgo</title>
<ellipse fill="none" stroke="black" cx="884.292" cy="-234" rx="81.4863" ry="18"/>
<text text-anchor="start" x="829.792" y="-231.3" font-family="Times,serif" font-size="14.00">M</text>
<text text-anchor="start" x="842.792" y="-231.3" font-family="Times,serif" baseline-shift="sub" font-size="14.00">py</text>
<text text-anchor="start" x="855.792" y="-231.3" font-family="Times,serif" font-size="14.00"> vs S</text>
<text text-anchor="start" x="883.792" y="-231.3" font-family="Times,serif" baseline-shift="sub" font-size="14.00">go</text>
<text text-anchor="start" x="896.792" y="-231.3" font-family="Times,serif" font-size="14.00">: try/fix</text>
</g>
<!-- Cpy_r_Sgo&#45;&gt;Mpy_vs_Sgo -->
<g id="edge12" class="edge"><title>Cpy_r_Sgo&#45;&gt;Mpy_vs_Sgo</title>
<path fill="none" stroke="black" d="M629.148,-294.139C680.49,-282.239 763.151,-263.079 820.41,-249.807"/>
<polygon fill="black" stroke="black" points="821.485,-253.151 830.437,-247.483 819.905,-246.331 821.485,-253.151"/>
</g>
<!-- Cgo_r_Sgo -->
<g id="node12" class="node"><title>Cgo_r_Sgo</title>
<ellipse fill="none" stroke="black" cx="254.292" cy="-306" rx="61.99" ry="18"/>
<text text-anchor="start" x="214.792" y="-303.3" font-family="Times,serif" font-size="14.00">C</text>
<text text-anchor="start" x="224.792" y="-303.3" font-family="Times,serif" baseline-shift="sub" font-size="14.00">go</text>
<text text-anchor="start" x="237.792" y="-303.3" font-family="Times,serif" font-size="14.00"> &#160;read S</text>
<text text-anchor="start" x="280.792" y="-303.3" font-family="Times,serif" baseline-shift="sub" font-size="14.00">go</text>
</g>
<!-- Cgo_r_Sgo&#45;&gt;Cgo -->
<g id="edge13" class="edge"><title>Cgo_r_Sgo&#45;&gt;Cgo</title>
<path fill="none" stroke="black" d="M247.514,-288.055C244.281,-279.973 240.34,-270.121 236.736,-261.112"/>
<polygon fill="black" stroke="black" points="239.971,-259.774 233.007,-251.789 233.472,-262.374 239.971,-259.774"/>
</g>
<!-- Cgo_r_Sgo&#45;&gt;Sgo -->
<g id="edge14" class="edge"><title>Cgo_r_Sgo&#45;&gt;Sgo</title>
<path fill="none" stroke="black" d="M260.666,-287.9C269.238,-264.09 284.217,-219.429 291.292,-180 294.961,-159.551 296.432,-136.092 297.002,-118.395"/>
<polygon fill="black" stroke="black" points="300.506,-118.281 297.251,-108.198 293.508,-118.11 300.506,-118.281"/>
</g>
<!-- Cgo_r_Spy -->
<g id="node13" class="node"><title>Cgo_r_Spy</title>
<ellipse fill="none" stroke="black" cx="409.292" cy="-306" rx="61.99" ry="18"/>
<text text-anchor="start" x="369.792" y="-303.3" font-family="Times,serif" font-size="14.00">C</text>
<text text-anchor="start" x="379.792" y="-303.3" font-family="Times,serif" baseline-shift="sub" font-size="14.00">go</text>
<text text-anchor="start" x="392.792" y="-303.3" font-family="Times,serif" font-size="14.00"> &#160;read S</text>
<text text-anchor="start" x="435.792" y="-303.3" font-family="Times,serif" baseline-shift="sub" font-size="14.00">py</text>
</g>
<!-- Cgo_r_Spy&#45;&gt;Cgo -->
<g id="edge15" class="edge"><title>Cgo_r_Spy&#45;&gt;Cgo</title>
<path fill="none" stroke="black" d="M373.137,-291.17C339.72,-278.388 290.527,-259.571 258.448,-247.3"/>
<polygon fill="black" stroke="black" points="259.669,-244.02 249.079,-243.716 257.168,-250.558 259.669,-244.02"/>
</g>
<!-- Cgo_r_Spy&#45;&gt;Protog_fix -->
<g id="edge16" class="edge"><title>Cgo_r_Spy&#45;&gt;Protog_fix</title>
<path fill="none" stroke="black" d="M415.344,-288.055C418.157,-280.176 421.572,-270.617 424.723,-261.794"/>
<polygon fill="black" stroke="black" points="428.055,-262.87 428.122,-252.275 421.463,-260.516 428.055,-262.87"/>
</g>
</g>
</svg>
