<?xml version="1.0" encoding="UTF-8" standalone="no"?>
<!DOCTYPE svg PUBLIC "-//W3C//DTD SVG 1.1//EN"
 "http://www.w3.org/Graphics/SVG/1.1/DTD/svg11.dtd">
<!-- Generated by graphviz version 2.40.1 (20161225.0304)
 -->
<!-- Title: %3 Pages: 1 -->
<svg width="1509pt" height="601pt"
 viewBox="0.00 0.00 1508.99 601.22" xmlns="http://www.w3.org/2000/svg" xmlns:xlink="http://www.w3.org/1999/xlink">
<g id="graph0" class="graph" transform="scale(1 1) rotate(0) translate(4 597.2203)">
<title>%3</title>
<polygon fill="#ffffff" stroke="transparent" points="-4,4 -4,-597.2203 1504.9919,-597.2203 1504.9919,4 -4,4"/>
<!-- Cgo -->
<g id="node1" class="node">
<title>Cgo</title>
<ellipse fill="#ffffe0" stroke="#000000" cx="444.7468" cy="-503.2203" rx="27" ry="18"/>
<text text-anchor="start" x="433.2468" y="-500.5203" font-family="Times,serif" font-size="14.00" fill="#000000">C</text>
<text text-anchor="start" x="443.2468" y="-500.5203" font-family="Times,serif" baseline-shift="sub" font-size="14.00" fill="#000000">go</text>
</g>
<!-- SCgo_t -->
<g id="node2" class="node">
<title>SCgo_t</title>
<ellipse fill="#ffffe0" stroke="#000000" cx="444.7468" cy="-431.2203" rx="69.5877" ry="18"/>
<text text-anchor="start" x="399.2468" y="-428.5203" font-family="Times,serif" font-size="14.00" fill="#000000">S</text>
<text text-anchor="start" x="407.2468" y="-428.5203" font-family="Times,serif" baseline-shift="sub" font-size="14.00" fill="#000000">go</text>
<text text-anchor="start" x="420.2468" y="-428.5203" font-family="Times,serif" font-size="14.00" fill="#000000"> &#160;/ C</text>
<text text-anchor="start" x="445.2468" y="-428.5203" font-family="Times,serif" baseline-shift="sub" font-size="14.00" fill="#000000">go</text>
<text text-anchor="start" x="458.2468" y="-428.5203" font-family="Times,serif" font-size="14.00" fill="#000000"> &#160;tests</text>
</g>
<!-- Cgo&#45;&gt;SCgo_t -->
<g id="edge1" class="edge">
<title>Cgo&#45;&gt;SCgo_t</title>
<path fill="none" stroke="#000000" d="M438.8311,-485.4226C438.0473,-477.6067 437.8158,-468.2374 438.1366,-459.5039"/>
<polygon fill="#000000" stroke="#000000" points="441.6429,-459.5203 438.8018,-449.3135 434.6577,-459.0642 441.6429,-459.5203"/>
</g>
<!-- SCgo_t&#45;&gt;Cgo -->
<g id="edge5" class="edge">
<title>SCgo_t&#45;&gt;Cgo</title>
<path fill="none" stroke="#000000" d="M450.6918,-449.3135C451.4618,-457.168 451.6794,-466.5485 451.3447,-475.2657"/>
<polygon fill="#000000" stroke="#000000" points="447.8406,-475.2105 450.6626,-485.4226 454.8249,-475.6796 447.8406,-475.2105"/>
</g>
<!-- Sgo -->
<g id="node3" class="node">
<title>Sgo</title>
<ellipse fill="#ffffe0" stroke="#000000" cx="359.7468" cy="-359.2203" rx="27" ry="18"/>
<text text-anchor="start" x="349.2468" y="-356.5203" font-family="Times,serif" font-size="14.00" fill="#000000">S</text>
<text text-anchor="start" x="357.2468" y="-356.5203" font-family="Times,serif" baseline-shift="sub" font-size="14.00" fill="#000000">go</text>
</g>
<!-- SCgo_t&#45;&gt;Sgo -->
<g id="edge4" class="edge">
<title>SCgo_t&#45;&gt;Sgo</title>
<path fill="none" stroke="#000000" d="M418.7631,-414.1574C406.4167,-404.5617 391.9622,-392.4567 380.3707,-382.0532"/>
<polygon fill="#000000" stroke="#000000" points="382.6015,-379.3501 372.8643,-375.1743 377.8722,-384.5109 382.6015,-379.3501"/>
</g>
<!-- Mgo -->
<g id="node4" class="node">
<title>Mgo</title>
<ellipse fill="#ffffe0" stroke="#000000" cx="444.7468" cy="-359.2203" rx="27.0966" ry="18"/>
<text text-anchor="start" x="431.7468" y="-356.5203" font-family="Times,serif" font-size="14.00" fill="#000000">M</text>
<text text-anchor="start" x="444.7468" y="-356.5203" font-family="Times,serif" baseline-shift="sub" font-size="14.00" fill="#000000">go</text>
</g>
<!-- SCgo_t&#45;&gt;Mgo -->
<g id="edge3" class="edge">
<title>SCgo_t&#45;&gt;Mgo</title>
<path fill="none" stroke="#000000" d="M444.7468,-413.0517C444.7468,-405.3513 444.7468,-396.1947 444.7468,-387.637"/>
<polygon fill="#000000" stroke="#000000" points="448.2469,-387.6336 444.7468,-377.6336 441.2469,-387.6336 448.2469,-387.6336"/>
</g>
<!-- Sgo&#45;&gt;SCgo_t -->
<g id="edge2" class="edge">
<title>Sgo&#45;&gt;SCgo_t</title>
<path fill="none" stroke="#000000" d="M379.635,-371.6232C392.3478,-381.1645 408.6803,-394.6584 421.8901,-406.3939"/>
<polygon fill="#000000" stroke="#000000" points="419.8897,-409.3042 429.6513,-413.4226 424.5885,-404.1156 419.8897,-409.3042"/>
</g>
<!-- io_cancel -->
<g id="node5" class="node">
<title>io_cancel</title>
<ellipse fill="none" stroke="#000000" cx="122.7468" cy="-287.2203" rx="94.4839" ry="18"/>
<text text-anchor="middle" x="122.7468" y="-283.5203" font-family="Times,serif" font-size="14.00" fill="#000000">? conn IO vs ctx cancel</text>
</g>
<!-- Sgo&#45;&gt;io_cancel -->
<g id="edge6" class="edge">
<title>Sgo&#45;&gt;io_cancel</title>
<path fill="none" stroke="#000000" d="M334.8316,-351.6512C299.0666,-340.7858 232.0753,-320.4341 182.9213,-305.5012"/>
<polygon fill="#000000" stroke="#000000" points="183.9284,-302.1493 173.3428,-302.5913 181.8936,-308.847 183.9284,-302.1493"/>
</g>
<!-- load_serial_next -->
<g id="node6" class="node">
<title>load_serial_next</title>
<ellipse fill="#ffffe0" stroke="#000000" cx="359.7468" cy="-287.2203" rx="124.5782" ry="18"/>
<text text-anchor="start" x="271.7468" y="-284.5203" font-family="Times,serif" font-size="14.00" fill="#000000">? GetObject return += serial</text>
<text text-anchor="start" x="426.7468" y="-284.5203" font-family="Times,serif" baseline-shift="sub" font-size="14.00" fill="#000000">next</text>
</g>
<!-- Sgo&#45;&gt;load_serial_next -->
<g id="edge7" class="edge">
<title>Sgo&#45;&gt;load_serial_next</title>
<path fill="none" stroke="#000000" d="M359.7468,-341.0517C359.7468,-333.3513 359.7468,-324.1947 359.7468,-315.637"/>
<polygon fill="#000000" stroke="#000000" points="363.2469,-315.6336 359.7468,-305.6336 356.2469,-315.6336 363.2469,-315.6336"/>
</g>
<!-- Sgo_speed -->
<g id="node7" class="node">
<title>Sgo_speed</title>
<ellipse fill="none" stroke="#000000" cx="579.7468" cy="-287.2203" rx="77.1866" ry="18"/>
<text text-anchor="start" x="528.2468" y="-284.5203" font-family="Times,serif" font-size="14.00" fill="#000000">S</text>
<text text-anchor="start" x="536.2468" y="-284.5203" font-family="Times,serif" baseline-shift="sub" font-size="14.00" fill="#000000">go</text>
<text text-anchor="start" x="549.2468" y="-284.5203" font-family="Times,serif" font-size="14.00" fill="#000000"> &#160;speed/latency</text>
</g>
<!-- Sgo&#45;&gt;Sgo_speed -->
<g id="edge8" class="edge">
<title>Sgo&#45;&gt;Sgo_speed</title>
<path fill="none" stroke="#000000" d="M383.594,-350.2095C391.564,-347.265 400.5131,-344.0311 408.7468,-341.2203 446.5576,-328.3131 489.4316,-314.7764 522.7906,-304.485"/>
<polygon fill="#000000" stroke="#000000" points="523.8485,-307.8215 532.3773,-301.5359 521.7902,-301.1309 523.8485,-307.8215"/>
</g>
<!-- garbage -->
<g id="node8" class="node">
<title>garbage</title>
<ellipse fill="#ffffe0" stroke="#000000" cx="154.7468" cy="-206.3503" rx="38.1938" ry="18"/>
<text text-anchor="middle" x="154.7468" y="-202.6503" font-family="Times,serif" font-size="14.00" fill="#000000">garbage</text>
</g>
<!-- Sgo_speed&#45;&gt;garbage -->
<g id="edge9" class="edge">
<title>Sgo_speed&#45;&gt;garbage</title>
<path fill="none" stroke="#000000" d="M522.4219,-275.0311C512.854,-273.0515 503.0254,-271.0515 493.7468,-269.2203 389.2289,-248.5934 266.1854,-226.2596 200.8934,-214.5621"/>
<polygon fill="#000000" stroke="#000000" points="201.3822,-211.094 190.922,-212.7779 200.1492,-217.9846 201.3822,-211.094"/>
</g>
<!-- diskio -->
<g id="node9" class="node">
<title>diskio</title>
<ellipse fill="none" stroke="#000000" cx="466.7468" cy="-206.3503" rx="34.394" ry="18"/>
<text text-anchor="middle" x="466.7468" y="-202.6503" font-family="Times,serif" font-size="14.00" fill="#000000">disk io</text>
</g>
<!-- Sgo_speed&#45;&gt;diskio -->
<g id="edge10" class="edge">
<title>Sgo_speed&#45;&gt;diskio</title>
<path fill="none" stroke="#000000" d="M555.7824,-270.0699C538.1416,-257.445 514.0815,-240.226 495.4196,-226.8704"/>
<polygon fill="#000000" stroke="#000000" points="497.4366,-224.0099 487.2676,-221.0363 493.3627,-229.7023 497.4366,-224.0099"/>
</g>
<!-- ConnClose_notimer -->
<g id="node10" class="node">
<title>ConnClose_notimer</title>
<ellipse fill="#ffffe0" stroke="#000000" cx="579.7468" cy="-206.3503" rx="56.6372" ry="26.7407"/>
<text text-anchor="middle" x="579.7468" y="-210.1503" font-family="Times,serif" font-size="14.00" fill="#000000">Conn.Close</text>
<text text-anchor="middle" x="579.7468" y="-195.1503" font-family="Times,serif" font-size="14.00" fill="#000000">no timer</text>
</g>
<!-- Sgo_speed&#45;&gt;ConnClose_notimer -->
<g id="edge11" class="edge">
<title>Sgo_speed&#45;&gt;ConnClose_notimer</title>
<path fill="none" stroke="#000000" d="M579.7468,-268.8697C579.7468,-261.2998 579.7468,-252.2403 579.7468,-243.3984"/>
<polygon fill="#000000" stroke="#000000" points="583.2469,-243.2209 579.7468,-233.2209 576.2469,-243.2209 583.2469,-243.2209"/>
</g>
<!-- osnet_latency -->
<g id="node11" class="node">
<title>osnet_latency</title>
<ellipse fill="none" stroke="#000000" cx="717.7468" cy="-206.3503" rx="60.2083" ry="26.7407"/>
<text text-anchor="middle" x="717.7468" y="-210.1503" font-family="Times,serif" font-size="14.00" fill="#000000">OS/Network</text>
<text text-anchor="middle" x="717.7468" y="-195.1503" font-family="Times,serif" font-size="14.00" fill="#000000">latency</text>
</g>
<!-- Sgo_speed&#45;&gt;osnet_latency -->
<g id="edge12" class="edge">
<title>Sgo_speed&#45;&gt;osnet_latency</title>
<path fill="none" stroke="#000000" d="M608.3405,-270.464C626.7846,-259.6555 651.176,-245.3618 672.247,-233.0139"/>
<polygon fill="#000000" stroke="#000000" points="674.189,-235.9326 681.0471,-227.8569 670.6498,-229.8932 674.189,-235.9326"/>
</g>
<!-- QSgo_speed -->
<g id="node12" class="node">
<title>QSgo_speed</title>
<ellipse fill="none" stroke="#000000" cx="1088.7468" cy="-206.3503" rx="27" ry="18"/>
<text text-anchor="start" x="1085.2468" y="-202.6503" font-family="Times,serif" font-size="14.00" fill="#000000">?</text>
</g>
<!-- Sgo_speed&#45;&gt;QSgo_speed -->
<g id="edge13" class="edge">
<title>Sgo_speed&#45;&gt;QSgo_speed</title>
<path fill="none" stroke="#000000" d="M643.6966,-277.06C751.6053,-259.9154 966.454,-225.7802 1052.1843,-212.1594"/>
<polygon fill="#000000" stroke="#000000" points="1052.8935,-215.5907 1062.2205,-210.5648 1051.7951,-208.6774 1052.8935,-215.5907"/>
</g>
<!-- pktbuf_alloc -->
<g id="node17" class="node">
<title>pktbuf_alloc</title>
<ellipse fill="#ffffe0" stroke="#000000" cx="35.7468" cy="-116.6102" rx="35.9954" ry="18"/>
<text text-anchor="start" x="16.2468" y="-112.9102" font-family="Times,serif" font-size="14.00" fill="#000000">PktBuf</text>
</g>
<!-- garbage&#45;&gt;pktbuf_alloc -->
<g id="edge18" class="edge">
<title>garbage&#45;&gt;pktbuf_alloc</title>
<path fill="none" stroke="#000000" d="M134.29,-190.9234C114.9304,-176.324 85.6976,-154.279 64.0952,-137.9882"/>
<polygon fill="#000000" stroke="#000000" points="66.0283,-135.0623 55.9367,-131.8357 61.8135,-140.6513 66.0283,-135.0623"/>
</g>
<!-- msg_alloc -->
<g id="node18" class="node">
<title>msg_alloc</title>
<ellipse fill="#ffffe0" stroke="#000000" cx="116.7468" cy="-116.6102" rx="27" ry="18"/>
<text text-anchor="start" x="104.2468" y="-112.9102" font-family="Times,serif" font-size="14.00" fill="#000000">Msg</text>
</g>
<!-- garbage&#45;&gt;msg_alloc -->
<g id="edge19" class="edge">
<title>garbage&#45;&gt;msg_alloc</title>
<path fill="none" stroke="#000000" d="M147.2393,-188.6205C141.7913,-175.7547 134.3241,-158.1203 128.1428,-143.5227"/>
<polygon fill="#000000" stroke="#000000" points="131.2318,-141.8414 124.1095,-133.9977 124.7859,-144.571 131.2318,-141.8414"/>
</g>
<!-- conn_alloc -->
<g id="node19" class="node">
<title>conn_alloc</title>
<ellipse fill="#ffffe0" stroke="#000000" cx="191.7468" cy="-116.6102" rx="29.795" ry="18"/>
<text text-anchor="start" x="176.7468" y="-112.9102" font-family="Times,serif" font-size="14.00" fill="#000000">Conn</text>
</g>
<!-- garbage&#45;&gt;conn_alloc -->
<g id="edge20" class="edge">
<title>garbage&#45;&gt;conn_alloc</title>
<path fill="none" stroke="#000000" d="M162.0568,-188.6205C167.3272,-175.8377 174.5384,-158.3477 180.5341,-143.8056"/>
<polygon fill="#000000" stroke="#000000" points="183.876,-144.8823 184.452,-134.3031 177.4044,-142.214 183.876,-144.8823"/>
</g>
<!-- gosched -->
<g id="node20" class="node">
<title>gosched</title>
<ellipse fill="#f2f2f2" stroke="#000000" cx="304.7468" cy="-116.6102" rx="65.1077" ry="26.7407"/>
<text text-anchor="middle" x="304.7468" y="-120.4102" font-family="Times,serif" font-size="14.00" fill="#000000">?</text>
<text text-anchor="middle" x="304.7468" y="-105.4102" font-family="Times,serif" font-size="14.00" fill="#000000">go scheduling</text>
</g>
<!-- diskio&#45;&gt;gosched -->
<g id="edge21" class="edge">
<title>diskio&#45;&gt;gosched</title>
<path fill="none" stroke="#000000" d="M442.8432,-193.1088C419.2335,-180.0302 382.4561,-159.6573 352.7895,-143.2235"/>
<polygon fill="#000000" stroke="#000000" points="354.277,-140.0464 343.8334,-138.2622 350.8849,-146.1696 354.277,-140.0464"/>
</g>
<!-- GOMAXPROCS -->
<g id="node21" class="node">
<title>GOMAXPROCS</title>
<ellipse fill="none" stroke="#000000" cx="466.7468" cy="-116.6102" rx="78.4777" ry="26.7407"/>
<text text-anchor="middle" x="466.7468" y="-120.4102" font-family="Times,serif" font-size="14.00" fill="#000000">?</text>
<text text-anchor="middle" x="466.7468" y="-105.4102" font-family="Times,serif" font-size="14.00" fill="#000000">GOMAXPROCS</text>
</g>
<!-- diskio&#45;&gt;GOMAXPROCS -->
<g id="edge22" class="edge">
<title>diskio&#45;&gt;GOMAXPROCS</title>
<path fill="none" stroke="#000000" d="M466.7468,-188.19C466.7468,-178.287 466.7468,-165.6549 466.7468,-153.7674"/>
<polygon fill="#000000" stroke="#000000" points="470.2469,-153.5998 466.7468,-143.5998 463.2469,-153.5998 470.2469,-153.5998"/>
</g>
<!-- rx_no_delay -->
<g id="node27" class="node">
<title>rx_no_delay</title>
<ellipse fill="#ffffe0" stroke="#000000" cx="607.7468" cy="-116.6102" rx="44.5955" ry="26.7407"/>
<text text-anchor="middle" x="607.7468" y="-120.4102" font-family="Times,serif" font-size="14.00" fill="#000000">net rx</text>
<text text-anchor="middle" x="607.7468" y="-105.4102" font-family="Times,serif" font-size="14.00" fill="#000000">no delay</text>
</g>
<!-- osnet_latency&#45;&gt;rx_no_delay -->
<g id="edge27" class="edge">
<title>osnet_latency&#45;&gt;rx_no_delay</title>
<path fill="none" stroke="#000000" d="M688.8456,-182.7721C674.6666,-171.2046 657.4749,-157.1793 642.5757,-145.0242"/>
<polygon fill="#000000" stroke="#000000" points="644.529,-142.1008 634.5679,-138.4913 640.104,-147.5248 644.529,-142.1008"/>
</g>
<!-- nocstates -->
<g id="node28" class="node">
<title>nocstates</title>
<ellipse fill="#ffffe0" stroke="#000000" cx="723.7468" cy="-116.6102" rx="53.8905" ry="18"/>
<text text-anchor="middle" x="723.7468" y="-112.9102" font-family="Times,serif" font-size="14.00" fill="#000000">disable &gt;C1</text>
</g>
<!-- osnet_latency&#45;&gt;nocstates -->
<g id="edge28" class="edge">
<title>osnet_latency&#45;&gt;nocstates</title>
<path fill="none" stroke="#000000" d="M719.547,-179.4253C720.2795,-168.4705 721.1261,-155.8071 721.8666,-144.7328"/>
<polygon fill="#000000" stroke="#000000" points="725.3617,-144.9209 722.5367,-134.7097 718.3773,-144.4539 725.3617,-144.9209"/>
</g>
<!-- tcp_latency -->
<g id="node29" class="node">
<title>tcp_latency</title>
<ellipse fill="none" stroke="#000000" cx="839.7468" cy="-116.6102" rx="44.5955" ry="26.7407"/>
<text text-anchor="middle" x="839.7468" y="-120.4102" font-family="Times,serif" font-size="14.00" fill="#000000">TCP RR</text>
<text text-anchor="middle" x="839.7468" y="-105.4102" font-family="Times,serif" font-size="14.00" fill="#000000">latency</text>
</g>
<!-- osnet_latency&#45;&gt;tcp_latency -->
<g id="edge29" class="edge">
<title>osnet_latency&#45;&gt;tcp_latency</title>
<path fill="none" stroke="#000000" d="M749.1649,-183.24C765.6679,-171.1008 785.9823,-156.158 803.1883,-143.5017"/>
<polygon fill="#000000" stroke="#000000" points="805.3733,-146.2394 811.3549,-137.4946 801.2255,-140.6006 805.3733,-146.2394"/>
</g>
<!-- prefetch_slow -->
<g id="node13" class="node">
<title>prefetch_slow</title>
<ellipse fill="none" stroke="#000000" cx="952.7468" cy="-116.6102" rx="50.41" ry="26.7407"/>
<text text-anchor="middle" x="952.7468" y="-120.4102" font-family="Times,serif" font-size="14.00" fill="#000000">? prefetch</text>
<text text-anchor="middle" x="952.7468" y="-105.4102" font-family="Times,serif" font-size="14.00" fill="#000000">slow</text>
</g>
<!-- QSgo_speed&#45;&gt;prefetch_slow -->
<g id="edge14" class="edge">
<title>QSgo_speed&#45;&gt;prefetch_slow</title>
<path fill="none" stroke="#000000" d="M1069.5498,-193.6831C1049.7696,-180.631 1018.3452,-159.8955 993.071,-143.2183"/>
<polygon fill="#000000" stroke="#000000" points="994.6913,-140.0941 984.4169,-137.5078 990.8359,-145.9368 994.6913,-140.0941"/>
</g>
<!-- parallel_slow -->
<g id="node14" class="node">
<title>parallel_slow</title>
<ellipse fill="none" stroke="#000000" cx="1088.7468" cy="-116.6102" rx="67.7647" ry="26.7407"/>
<text text-anchor="middle" x="1088.7468" y="-120.4102" font-family="Times,serif" font-size="14.00" fill="#000000">? many clients</text>
<text text-anchor="middle" x="1088.7468" y="-105.4102" font-family="Times,serif" font-size="14.00" fill="#000000">Sgo slower</text>
</g>
<!-- QSgo_speed&#45;&gt;parallel_slow -->
<g id="edge15" class="edge">
<title>QSgo_speed&#45;&gt;parallel_slow</title>
<path fill="none" stroke="#000000" d="M1088.7468,-188.19C1088.7468,-178.287 1088.7468,-165.6549 1088.7468,-153.7674"/>
<polygon fill="#000000" stroke="#000000" points="1092.2469,-153.5998 1088.7468,-143.5998 1085.2469,-153.5998 1092.2469,-153.5998"/>
</g>
<!-- Mmap_go -->
<g id="node15" class="node">
<title>Mmap_go</title>
<ellipse fill="none" stroke="#000000" cx="1273.7468" cy="-116.6102" rx="98.5829" ry="18"/>
<text text-anchor="middle" x="1273.7468" y="-112.9102" font-family="Times,serif" font-size="14.00" fill="#000000">? io.ReaderAt via mmap</text>
</g>
<!-- QSgo_speed&#45;&gt;Mmap_go -->
<g id="edge16" class="edge">
<title>QSgo_speed&#45;&gt;Mmap_go</title>
<path fill="none" stroke="#000000" d="M1110.6952,-195.7035C1139.9009,-181.5364 1192.2089,-156.1627 1229.7088,-137.9722"/>
<polygon fill="#000000" stroke="#000000" points="1231.4308,-141.027 1238.9005,-133.5135 1228.3756,-134.7289 1231.4308,-141.027"/>
</g>
<!-- sha1_index -->
<g id="node16" class="node">
<title>sha1_index</title>
<ellipse fill="none" stroke="#000000" cx="1445.7468" cy="-116.6102" rx="55.4913" ry="18"/>
<text text-anchor="middle" x="1445.7468" y="-112.9102" font-family="Times,serif" font-size="14.00" fill="#000000">? sha1 index</text>
</g>
<!-- QSgo_speed&#45;&gt;sha1_index -->
<g id="edge17" class="edge">
<title>QSgo_speed&#45;&gt;sha1_index</title>
<path fill="none" stroke="#000000" d="M1115.4384,-202.3339C1167.454,-194.1338 1285.7058,-173.6563 1381.7468,-143.4802 1389.2645,-141.1182 1397.1174,-138.2097 1404.6437,-135.188"/>
<polygon fill="#000000" stroke="#000000" points="1406.0529,-138.3927 1413.9526,-131.3326 1403.3744,-131.9254 1406.0529,-138.3927"/>
</g>
<!-- Cpy_r_Sgo -->
<g id="node22" class="node">
<title>Cpy_r_Sgo</title>
<ellipse fill="#ffffe0" stroke="#000000" cx="256.7468" cy="-431.2203" rx="61.99" ry="18"/>
<text text-anchor="start" x="217.2468" y="-428.5203" font-family="Times,serif" font-size="14.00" fill="#000000">C</text>
<text text-anchor="start" x="227.2468" y="-428.5203" font-family="Times,serif" baseline-shift="sub" font-size="14.00" fill="#000000">py</text>
<text text-anchor="start" x="240.2468" y="-428.5203" font-family="Times,serif" font-size="14.00" fill="#000000"> &#160;read S</text>
<text text-anchor="start" x="283.2468" y="-428.5203" font-family="Times,serif" baseline-shift="sub" font-size="14.00" fill="#000000">go</text>
</g>
<!-- Cpy_r_Sgo&#45;&gt;Sgo -->
<g id="edge23" class="edge">
<title>Cpy_r_Sgo&#45;&gt;Sgo</title>
<path fill="none" stroke="#000000" d="M280.636,-414.5211C296.0799,-403.7254 316.2271,-389.6419 332.3244,-378.3894"/>
<polygon fill="#000000" stroke="#000000" points="334.6042,-381.0661 340.7951,-372.4682 330.5937,-375.3289 334.6042,-381.0661"/>
</g>
<!-- Cgo_r_Sgo -->
<g id="node23" class="node">
<title>Cgo_r_Sgo</title>
<ellipse fill="#ffffe0" stroke="#000000" cx="346.7468" cy="-575.2203" rx="61.99" ry="18"/>
<text text-anchor="start" x="307.2468" y="-572.5203" font-family="Times,serif" font-size="14.00" fill="#000000">C</text>
<text text-anchor="start" x="317.2468" y="-572.5203" font-family="Times,serif" baseline-shift="sub" font-size="14.00" fill="#000000">go</text>
<text text-anchor="start" x="330.2468" y="-572.5203" font-family="Times,serif" font-size="14.00" fill="#000000"> &#160;read S</text>
<text text-anchor="start" x="373.2468" y="-572.5203" font-family="Times,serif" baseline-shift="sub" font-size="14.00" fill="#000000">go</text>
</g>
<!-- Cgo_r_Sgo&#45;&gt;Cgo -->
<g id="edge24" class="edge">
<title>Cgo_r_Sgo&#45;&gt;Cgo</title>
<path fill="none" stroke="#000000" d="M369.9715,-558.1574C384.4499,-547.5201 403.1256,-533.7992 418.1907,-522.7309"/>
<polygon fill="#000000" stroke="#000000" points="420.5981,-525.3054 426.5846,-516.564 416.4535,-519.6642 420.5981,-525.3054"/>
</g>
<!-- Cgo_r_Sgo&#45;&gt;Sgo -->
<g id="edge25" class="edge">
<title>Cgo_r_Sgo&#45;&gt;Sgo</title>
<path fill="none" stroke="#000000" d="M347.8328,-557.1758C350.0935,-519.6141 355.32,-432.7744 358.0369,-387.6307"/>
<polygon fill="#000000" stroke="#000000" points="361.5476,-387.5577 358.6548,-377.3654 354.5602,-387.1371 361.5476,-387.5577"/>
</g>
<!-- Cgo_r_Spy -->
<g id="node24" class="node">
<title>Cgo_r_Spy</title>
<ellipse fill="#ffffe0" stroke="#000000" cx="487.7468" cy="-575.2203" rx="61.99" ry="18"/>
<text text-anchor="start" x="448.2468" y="-572.5203" font-family="Times,serif" font-size="14.00" fill="#000000">C</text>
<text text-anchor="start" x="458.2468" y="-572.5203" font-family="Times,serif" baseline-shift="sub" font-size="14.00" fill="#000000">go</text>
<text text-anchor="start" x="471.2468" y="-572.5203" font-family="Times,serif" font-size="14.00" fill="#000000"> &#160;read S</text>
<text text-anchor="start" x="514.2468" y="-572.5203" font-family="Times,serif" baseline-shift="sub" font-size="14.00" fill="#000000">py</text>
</g>
<!-- Cgo_r_Spy&#45;&gt;Cgo -->
<g id="edge26" class="edge">
<title>Cgo_r_Spy&#45;&gt;Cgo</title>
<path fill="none" stroke="#000000" d="M477.1176,-557.4226C471.9912,-548.8389 465.7459,-538.3817 460.1135,-528.9506"/>
<polygon fill="#000000" stroke="#000000" points="463.09,-527.1084 454.9577,-520.3176 457.0802,-530.6976 463.09,-527.1084"/>
</g>
<!-- Cleanup -->
<g id="node25" class="node">
<title>Cleanup</title>
<ellipse fill="none" stroke="#000000" cx="634.7468" cy="-575.2203" rx="66.8882" ry="18"/>
<text text-anchor="middle" x="634.7468" y="-571.5203" font-family="Times,serif" font-size="14.00" fill="#000000">Cleanup history</text>
</g>
<!-- Post -->
<g id="node26" class="node">
<title>Post</title>
<ellipse fill="#ffffe0" stroke="#000000" cx="746.7468" cy="-575.2203" rx="27" ry="18"/>
<text text-anchor="middle" x="746.7468" y="-571.5203" font-family="Times,serif" font-size="14.00" fill="#000000">Post</text>
</g>
<!-- rtl_patch -->
<g id="node31" class="node">
<title>rtl_patch</title>
<ellipse fill="#ffffe0" stroke="#000000" cx="607.7468" cy="-26.8701" rx="57.0522" ry="26.7407"/>
<text text-anchor="middle" x="607.7468" y="-30.6701" font-family="Times,serif" font-size="14.00" fill="#000000">r8169 patch</text>
<text text-anchor="middle" x="607.7468" y="-15.6701" font-family="Times,serif" font-size="14.00" fill="#000000">ethtool &#45;C</text>
</g>
<!-- rx_no_delay&#45;&gt;rtl_patch -->
<g id="edge31" class="edge">
<title>rx_no_delay&#45;&gt;rtl_patch</title>
<path fill="none" stroke="#000000" d="M607.7468,-89.6852C607.7468,-81.6102 607.7468,-72.607 607.7468,-63.9961"/>
<polygon fill="#000000" stroke="#000000" points="611.2469,-63.776 607.7468,-53.776 604.2469,-63.7761 611.2469,-63.776"/>
</g>
<!-- rtl_tcp_2eth -->
<g id="node30" class="node">
<title>rtl_tcp_2eth</title>
<ellipse fill="#fdf5e6" stroke="#000000" cx="839.7468" cy="-26.8701" rx="102.561" ry="26.7407"/>
<text text-anchor="middle" x="839.7468" y="-30.6701" font-family="Times,serif" font-size="14.00" fill="#000000">RTL: TCP RR ↑ 400μs</text>
<text text-anchor="middle" x="839.7468" y="-15.6701" font-family="Times,serif" font-size="14.00" fill="#000000"> on 1 eth.f &#45;&gt; 2 eth.f</text>
</g>
<!-- tcp_latency&#45;&gt;rtl_tcp_2eth -->
<g id="edge30" class="edge">
<title>tcp_latency&#45;&gt;rtl_tcp_2eth</title>
<path fill="none" stroke="#000000" d="M839.7468,-89.6852C839.7468,-81.6102 839.7468,-72.607 839.7468,-63.9961"/>
<polygon fill="#000000" stroke="#000000" points="843.2469,-63.776 839.7468,-53.776 836.2469,-63.7761 843.2469,-63.776"/>
</g>
</g>
</svg>
