<?xml version="1.0" encoding="UTF-8" standalone="no"?>
<!DOCTYPE svg PUBLIC "-//W3C//DTD SVG 1.1//EN"
 "http://www.w3.org/Graphics/SVG/1.1/DTD/svg11.dtd">
<!-- Generated by graphviz version 2.38.0 (20140413.2041)
 -->
<!-- Title: %3 Pages: 1 -->
<svg width="805pt" height="404pt"
 viewBox="0.00 0.00 804.54 404.00" xmlns="http://www.w3.org/2000/svg" xmlns:xlink="http://www.w3.org/1999/xlink">
<g id="graph0" class="graph" transform="scale(1 1) rotate(0) translate(4 400)">
<title>%3</title>
<polygon fill="white" stroke="none" points="-4,4 -4,-400 800.536,-400 800.536,4 -4,4"/>
<!-- Cgo -->
<g id="node1" class="node"><title>Cgo</title>
<ellipse fill="lightyellow" stroke="black" cx="416.242" cy="-306" rx="27" ry="18"/>
<text text-anchor="start" x="404.742" y="-303.3" font-family="Times,serif" font-size="14.00">C</text>
<text text-anchor="start" x="414.742" y="-303.3" font-family="Times,serif" baseline-shift="sub" font-size="14.00">go</text>
</g>
<!-- SCgo_t -->
<g id="node2" class="node"><title>SCgo_t</title>
<ellipse fill="lightyellow" stroke="black" cx="416.242" cy="-234" rx="69.5877" ry="18"/>
<text text-anchor="start" x="370.742" y="-231.3" font-family="Times,serif" font-size="14.00">S</text>
<text text-anchor="start" x="378.742" y="-231.3" font-family="Times,serif" baseline-shift="sub" font-size="14.00">go</text>
<text text-anchor="start" x="391.742" y="-231.3" font-family="Times,serif" font-size="14.00"> &#160;/ C</text>
<text text-anchor="start" x="416.742" y="-231.3" font-family="Times,serif" baseline-shift="sub" font-size="14.00">go</text>
<text text-anchor="start" x="429.742" y="-231.3" font-family="Times,serif" font-size="14.00"> &#160;tests</text>
</g>
<!-- Cgo&#45;&gt;SCgo_t -->
<g id="edge1" class="edge"><title>Cgo&#45;&gt;SCgo_t</title>
<path fill="none" stroke="black" d="M410.402,-288.411C409.539,-280.507 409.29,-270.852 409.654,-261.935"/>
<polygon fill="black" stroke="black" points="413.145,-262.179 410.362,-251.956 406.162,-261.683 413.145,-262.179"/>
</g>
<!-- SCgo_t&#45;&gt;Cgo -->
<g id="edge5" class="edge"><title>SCgo_t&#45;&gt;Cgo</title>
<path fill="none" stroke="black" d="M422.121,-251.956C422.956,-259.827 423.19,-269.374 422.825,-278.187"/>
<polygon fill="black" stroke="black" points="419.316,-278.184 422.082,-288.411 426.297,-278.691 419.316,-278.184"/>
</g>
<!-- Sgo -->
<g id="node3" class="node"><title>Sgo</title>
<ellipse fill="lightyellow" stroke="black" cx="331.242" cy="-162" rx="27" ry="18"/>
<text text-anchor="start" x="320.742" y="-159.3" font-family="Times,serif" font-size="14.00">S</text>
<text text-anchor="start" x="328.742" y="-159.3" font-family="Times,serif" baseline-shift="sub" font-size="14.00">go</text>
</g>
<!-- SCgo_t&#45;&gt;Sgo -->
<g id="edge4" class="edge"><title>SCgo_t&#45;&gt;Sgo</title>
<path fill="none" stroke="black" d="M391.193,-217.116C378.555,-207.611 363.535,-195.394 351.607,-184.973"/>
<polygon fill="black" stroke="black" points="353.702,-182.151 343.911,-178.101 349.039,-187.373 353.702,-182.151"/>
</g>
<!-- Mgo -->
<g id="node4" class="node"><title>Mgo</title>
<ellipse fill="lightyellow" stroke="black" cx="416.242" cy="-162" rx="27.0966" ry="18"/>
<text text-anchor="start" x="403.242" y="-159.3" font-family="Times,serif" font-size="14.00">M</text>
<text text-anchor="start" x="416.242" y="-159.3" font-family="Times,serif" baseline-shift="sub" font-size="14.00">go</text>
</g>
<!-- SCgo_t&#45;&gt;Mgo -->
<g id="edge3" class="edge"><title>SCgo_t&#45;&gt;Mgo</title>
<path fill="none" stroke="black" d="M416.242,-215.697C416.242,-207.983 416.242,-198.712 416.242,-190.112"/>
<polygon fill="black" stroke="black" points="419.742,-190.104 416.242,-180.104 412.742,-190.104 419.742,-190.104"/>
</g>
<!-- Sgo&#45;&gt;SCgo_t -->
<g id="edge2" class="edge"><title>Sgo&#45;&gt;SCgo_t</title>
<path fill="none" stroke="black" d="M350.708,-174.751C363.576,-184.113 380.277,-197.526 393.685,-209.122"/>
<polygon fill="black" stroke="black" points="391.729,-212.064 401.544,-216.055 396.36,-206.815 391.729,-212.064"/>
</g>
<!-- io_cancel -->
<g id="node5" class="node"><title>io_cancel</title>
<ellipse fill="none" stroke="black" cx="94.2416" cy="-90" rx="94.4839" ry="18"/>
<text text-anchor="middle" x="94.2416" y="-86.3" font-family="Times,serif" font-size="14.00">? conn IO vs ctx cancel</text>
</g>
<!-- Sgo&#45;&gt;io_cancel -->
<g id="edge6" class="edge"><title>Sgo&#45;&gt;io_cancel</title>
<path fill="none" stroke="black" d="M306.771,-153.772C270.736,-143.129 202.325,-122.923 152.833,-108.306"/>
<polygon fill="black" stroke="black" points="153.784,-104.937 143.202,-105.461 151.801,-111.65 153.784,-104.937"/>
</g>
<!-- load_serial_next -->
<g id="node6" class="node"><title>load_serial_next</title>
<ellipse fill="none" stroke="black" cx="331.242" cy="-90" rx="124.578" ry="18"/>
<text text-anchor="start" x="243.242" y="-87.3" font-family="Times,serif" font-size="14.00">? GetObject return += serial</text>
<text text-anchor="start" x="398.242" y="-87.3" font-family="Times,serif" baseline-shift="sub" font-size="14.00">next</text>
</g>
<!-- Sgo&#45;&gt;load_serial_next -->
<g id="edge7" class="edge"><title>Sgo&#45;&gt;load_serial_next</title>
<path fill="none" stroke="black" d="M331.242,-143.697C331.242,-135.983 331.242,-126.712 331.242,-118.112"/>
<polygon fill="black" stroke="black" points="334.742,-118.104 331.242,-108.104 327.742,-118.104 334.742,-118.104"/>
</g>
<!-- Sgo_speed -->
<g id="node7" class="node"><title>Sgo_speed</title>
<ellipse fill="none" stroke="black" cx="551.242" cy="-90" rx="77.1866" ry="18"/>
<text text-anchor="start" x="499.742" y="-87.3" font-family="Times,serif" font-size="14.00">S</text>
<text text-anchor="start" x="507.742" y="-87.3" font-family="Times,serif" baseline-shift="sub" font-size="14.00">go</text>
<text text-anchor="start" x="520.742" y="-87.3" font-family="Times,serif" font-size="14.00"> &#160;speed/latency</text>
</g>
<!-- Sgo&#45;&gt;Sgo_speed -->
<g id="edge8" class="edge"><title>Sgo&#45;&gt;Sgo_speed</title>
<path fill="none" stroke="black" d="M354.616,-152.712C362.712,-149.889 371.858,-146.753 380.242,-144 418.81,-131.337 462.533,-117.799 496.113,-107.576"/>
<polygon fill="black" stroke="black" points="497.196,-110.905 505.746,-104.649 495.161,-104.207 497.196,-110.905"/>
</g>
<!-- Mmap_go -->
<g id="node8" class="node"><title>Mmap_go</title>
<ellipse fill="none" stroke="black" cx="329.242" cy="-18" rx="92.0841" ry="18"/>
<text text-anchor="middle" x="329.242" y="-14.3" font-family="Times,serif" font-size="14.00">io.ReaderAt via mmap</text>
</g>
<!-- Sgo_speed&#45;&gt;Mmap_go -->
<g id="edge9" class="edge"><title>Sgo_speed&#45;&gt;Mmap_go</title>
<path fill="none" stroke="black" d="M507.382,-75.1703C472.467,-64.161 423.355,-48.6754 385.539,-36.7513"/>
<polygon fill="black" stroke="black" points="386.279,-33.3149 375.689,-33.6457 384.174,-39.9909 386.279,-33.3149"/>
</g>
<!-- sha1_index -->
<g id="node9" class="node"><title>sha1_index</title>
<ellipse fill="none" stroke="black" cx="495.242" cy="-18" rx="55.4913" ry="18"/>
<text text-anchor="middle" x="495.242" y="-14.3" font-family="Times,serif" font-size="14.00">? sha1 index</text>
</g>
<!-- Sgo_speed&#45;&gt;sha1_index -->
<g id="edge10" class="edge"><title>Sgo_speed&#45;&gt;sha1_index</title>
<path fill="none" stroke="black" d="M537.686,-72.055C530.876,-63.5427 522.496,-53.0684 514.987,-43.6815"/>
<polygon fill="black" stroke="black" points="517.653,-41.4113 508.673,-35.789 512.187,-45.7842 517.653,-41.4113"/>
</g>
<!-- garbage -->
<g id="node10" class="node"><title>garbage</title>
<ellipse fill="none" stroke="black" cx="607.242" cy="-18" rx="38.1938" ry="18"/>
<text text-anchor="middle" x="607.242" y="-14.3" font-family="Times,serif" font-size="14.00">garbage</text>
</g>
<!-- Sgo_speed&#45;&gt;garbage -->
<g id="edge11" class="edge"><title>Sgo_speed&#45;&gt;garbage</title>
<path fill="none" stroke="black" d="M564.798,-72.055C571.708,-63.4175 580.234,-52.7599 587.827,-43.2681"/>
<polygon fill="black" stroke="black" points="590.682,-45.3022 594.196,-35.307 585.216,-40.9293 590.682,-45.3022"/>
</g>
<!-- gosched -->
<g id="node11" class="node"><title>gosched</title>
<ellipse fill="none" stroke="black" cx="730.242" cy="-18" rx="66.0889" ry="18"/>
<text text-anchor="middle" x="730.242" y="-14.3" font-family="Times,serif" font-size="14.00">? go scheduling</text>
</g>
<!-- Sgo_speed&#45;&gt;gosched -->
<g id="edge12" class="edge"><title>Sgo_speed&#45;&gt;gosched</title>
<path fill="none" stroke="black" d="M589.203,-74.1548C617.048,-63.2657 654.989,-48.4284 684.506,-36.8854"/>
<polygon fill="black" stroke="black" points="686.128,-40.0093 694.166,-33.1076 683.578,-33.4901 686.128,-40.0093"/>
</g>
<!-- Cpy_r_Sgo -->
<g id="node12" class="node"><title>Cpy_r_Sgo</title>
<ellipse fill="none" stroke="black" cx="228.242" cy="-234" rx="61.99" ry="18"/>
<text text-anchor="start" x="188.742" y="-231.3" font-family="Times,serif" font-size="14.00">C</text>
<text text-anchor="start" x="198.742" y="-231.3" font-family="Times,serif" baseline-shift="sub" font-size="14.00">py</text>
<text text-anchor="start" x="211.742" y="-231.3" font-family="Times,serif" font-size="14.00"> &#160;read S</text>
<text text-anchor="start" x="254.742" y="-231.3" font-family="Times,serif" baseline-shift="sub" font-size="14.00">go</text>
</g>
<!-- Cpy_r_Sgo&#45;&gt;Sgo -->
<g id="edge13" class="edge"><title>Cpy_r_Sgo&#45;&gt;Sgo</title>
<path fill="none" stroke="black" d="M251.357,-217.291C267.071,-206.611 287.912,-192.447 304.367,-181.264"/>
<polygon fill="black" stroke="black" points="306.693,-183.915 312.997,-175.399 302.759,-178.126 306.693,-183.915"/>
</g>
<!-- Cgo_r_Sgo -->
<g id="node13" class="node"><title>Cgo_r_Sgo</title>
<ellipse fill="none" stroke="black" cx="318.242" cy="-378" rx="61.99" ry="18"/>
<text text-anchor="start" x="278.742" y="-375.3" font-family="Times,serif" font-size="14.00">C</text>
<text text-anchor="start" x="288.742" y="-375.3" font-family="Times,serif" baseline-shift="sub" font-size="14.00">go</text>
<text text-anchor="start" x="301.742" y="-375.3" font-family="Times,serif" font-size="14.00"> &#160;read S</text>
<text text-anchor="start" x="344.742" y="-375.3" font-family="Times,serif" baseline-shift="sub" font-size="14.00">go</text>
</g>
<!-- Cgo_r_Sgo&#45;&gt;Cgo -->
<g id="edge14" class="edge"><title>Cgo_r_Sgo&#45;&gt;Cgo</title>
<path fill="none" stroke="black" d="M340.479,-361.116C355.251,-350.565 374.702,-336.671 390.197,-325.603"/>
<polygon fill="black" stroke="black" points="392.241,-328.445 398.344,-319.784 388.172,-322.749 392.241,-328.445"/>
</g>
<!-- Cgo_r_Sgo&#45;&gt;Sgo -->
<g id="edge15" class="edge"><title>Cgo_r_Sgo&#45;&gt;Sgo</title>
<path fill="none" stroke="black" d="M319.284,-359.849C321.532,-322.832 326.857,-235.181 329.578,-190.386"/>
<polygon fill="black" stroke="black" points="333.082,-190.426 330.195,-180.232 326.095,-190.002 333.082,-190.426"/>
</g>
<!-- Cgo_r_Spy -->
<g id="node14" class="node"><title>Cgo_r_Spy</title>
<ellipse fill="none" stroke="black" cx="459.242" cy="-378" rx="61.99" ry="18"/>
<text text-anchor="start" x="419.742" y="-375.3" font-family="Times,serif" font-size="14.00">C</text>
<text text-anchor="start" x="429.742" y="-375.3" font-family="Times,serif" baseline-shift="sub" font-size="14.00">go</text>
<text text-anchor="start" x="442.742" y="-375.3" font-family="Times,serif" font-size="14.00"> &#160;read S</text>
<text text-anchor="start" x="485.742" y="-375.3" font-family="Times,serif" baseline-shift="sub" font-size="14.00">py</text>
</g>
<!-- Cgo_r_Spy&#45;&gt;Cgo -->
<g id="edge16" class="edge"><title>Cgo_r_Spy&#45;&gt;Cgo</title>
<path fill="none" stroke="black" d="M448.833,-360.055C443.559,-351.469 437.058,-340.888 431.254,-331.439"/>
<polygon fill="black" stroke="black" points="434.182,-329.518 425.965,-322.829 428.217,-333.182 434.182,-329.518"/>
</g>
<!-- Cleanup -->
<g id="node15" class="node"><title>Cleanup</title>
<ellipse fill="none" stroke="black" cx="606.242" cy="-378" rx="66.8882" ry="18"/>
<text text-anchor="middle" x="606.242" y="-374.3" font-family="Times,serif" font-size="14.00">Cleanup history</text>
</g>
</g>
</svg>
